# xmcd CD database file
#
# Track frame offsets:
#	187
#	17382
#	34225
#	47485
#
# Disc length: 910 seconds
#
# Revision: 0
# Processed by: cddbd v1.5.1PL2 Copyright (c) Steve Scherf et al.
# Submitted via: CDex 1.51
#
DISCID=23038c04
DTITLE=TOPS - タイムマシンにお願い(Maxi Single)
DYEAR=1988
DGENRE=Soul
TTITLE0=タイムマシンにおねがい
TTITLE1=タイムマシンにおねがい(Dub Mix)
TTITLE2=BURNING LOVE
TTITLE3=Hold On! I'm Comin' (Funky Mix)
EXTD=YEAR: 1988
EXTT0=
EXTT1=
EXTT2=
EXTT3=
PLAYORDER=
